<?xml version="1.0" encoding="UTF-8" standalone="no"?>

<svg
   version="1.1"
   x="0px"
   y="0px"
   width="285px"
   height="285px"
   viewBox="-0.866 -0.866 285 285"
   enable-background="new -0.866 -0.866 285 285"
   xml:space="preserve"
   id="svg2"
   sodipodi:docname="spiral-logo-spinner.svg"
   inkscape:version="1.3.2 (091e20ef0f, 2023-11-25)"
   inkscape:export-filename="spinner-logo.png"
   inkscape:export-xdpi="96"
   inkscape:export-ydpi="96"
   xmlns:inkscape="http://www.inkscape.org/namespaces/inkscape"
   xmlns:sodipodi="http://sodipodi.sourceforge.net/DTD/sodipodi-0.dtd"
   xmlns:xlink="http://www.w3.org/1999/xlink"
   xmlns="http://www.w3.org/2000/svg"
   xmlns:svg="http://www.w3.org/2000/svg"><sodipodi:namedview
   id="namedview2"
   pagecolor="#ffffff"
   bordercolor="#000000"
   borderopacity="0.25"
   inkscape:showpageshadow="2"
   inkscape:pageopacity="0.0"
   inkscape:pagecheckerboard="0"
   inkscape:deskcolor="#d1d1d1"
   showgrid="false"
   inkscape:zoom="2.8210526"
   inkscape:cx="142.5"
   inkscape:cy="142.5"
   inkscape:window-width="2560"
   inkscape:window-height="1008"
   inkscape:window-x="0"
   inkscape:window-y="0"
   inkscape:window-maximized="1"
   inkscape:current-layer="svg2" />
<defs
   id="defs1"><linearGradient
   id="linearGradient44"
   inkscape:collect="always"><stop
     style="stop-color:#ffe680;stop-opacity:1;"
     offset="0"
     id="stop45" /><stop
     style="stop-color:#ffe680;stop-opacity:0;"
     offset="0.55694652"
     id="stop46" /></linearGradient>
<radialGradient
   inkscape:collect="always"
   xlink:href="#linearGradient44"
   id="radialGradient46"
   cx="141.634"
   cy="141.634"
   fx="141.634"
   fy="141.634"
   r="141.50786"
   gradientTransform="matrix(1,0,0,0.99956087,0,0.06219551)"
   gradientUnits="userSpaceOnUse" /><filter
   inkscape:collect="always"
   style="color-interpolation-filters:sRGB"
   id="filter39"
   x="-0.028315956"
   y="-0.027699092"
   width="1.0566286"
   height="1.0530173"><feGaussianBlur
     inkscape:collect="always"
     stdDeviation="0.86681957"
     id="feGaussianBlur39" /></filter></defs>


<g
   id="g54"
   transform="matrix(0.71846774,0,0,0.70166288,39.803771,42.185917)"><path
     fill="#DD4814"
     d="m 283.465,141.734 c 0,78.273 -63.457,141.73 -141.734,141.73 C 63.454,283.464 0,220.008 0,141.734 0,63.455 63.453,0 141.73,0 220.007,0 283.465,63.455 283.465,141.734 Z"
     id="path1"
     inkscape:label="path1"
     style="fill:#000080" /><path
     style="fill:url(#radialGradient46);stroke-width:0.354478"
     d="m 132.30996,283.01925 c -9.54279,-0.82222 -18.74036,-2.34481 -26.58582,-4.4011 C 66.407278,268.31323 33.204934,241.29253 14.868185,204.67785 0.9273201,176.84084 -3.3282469,144.15783 2.9659561,113.26804 13.873041,59.739809 55.348672,16.863777 108.55996,4.1087198 c 40.75633,-9.769533 83.55532,-1.075976 117.15485,23.7971112 46.2227,34.21778 67.11192,92.521919 53.15442,148.359909 -12.63329,50.54039 -52.76764,90.44102 -103.49024,102.88757 -11.28496,2.76915 -19.02162,3.71488 -31.72574,3.87812 -5.36148,0.0689 -10.46596,0.0634 -11.34329,-0.0122 z"
     id="path2-6" /><path
     sodipodi:type="spiral"
     style="mix-blend-mode:normal;fill:none;fill-rule:evenodd;stroke:#e9eba9;stroke-width:7.80472;stroke-dasharray:none;stroke-opacity:1;filter:url(#filter39)"
     id="path38"
     sodipodi:cx="139.55479"
     sodipodi:cy="138.23657"
     sodipodi:expansion="1"
     sodipodi:revolution="3"
     sodipodi:radius="123.43056"
     sodipodi:argument="-17.739828"
     sodipodi:t0="0"
     d="m 139.55479,138.23657 c 2.75335,5.54238 -6.11261,6.44587 -9.2118,4.57624 -8.3986,-5.06657 -5.94918,-17.18247 0.0593,-22.99985 10.7478,-10.40591 28.15707,-6.19525 36.7879,4.69489 12.66607,15.9817 6.50149,39.29965 -9.33045,50.57594 -21.10148,15.02951 -50.50437,6.83655 -64.363984,-13.96601 -17.440906,-26.17789 -7.187155,-61.739321 18.601564,-78.15203 31.23359,-19.87799 72.99142,-7.546881 91.94008,23.23713 22.33034,36.27788 7.91235,84.25422 -27.87269,105.72812 C 134.84949,236.72347 80.640556,220.21266 56.648561,179.42275 29.38733,133.07467 47.994923,72.62361 93.79237,46.118535 145.17019,16.383847 211.87014,37.090979 240.88464,87.897906 273.09623,144.30322 250.28756,217.25704 194.4697,248.77822"
     transform="translate(-8.1614021,1.3031309)" /></g></svg>
